<svg version="1.1" xmlns="http://www.w3.org/2000/svg" style="display: block;" viewBox="0 0 2048 1170" width="1344" height="768" preserveAspectRatio="none">
<path transform="translate(0,0)" fill="rgb(0,0,0)" d="M 159.871 264.89 L 161.286 265.048 C 161.623 265.495 161.96 265.943 162.298 266.39 C 162.103 289.618 162.301 321.686 162.313 343.9 L 162.523 659.488 C 162.598 666.834 162.589 674.279 163.457 681.619 C 173.967 770.426 276.286 819.526 348.928 763.662 C 364.801 751.455 376.802 734.593 384.56 716.171 C 396.336 688.208 394.325 657.084 394.245 627.288 L 393.933 538.238 C 393.881 523.784 392.85 494.187 395.747 481.209 C 398.132 470.336 403.556 460.363 411.388 452.452 C 421.742 442.032 435.81 436.151 450.499 436.101 C 465.384 436.028 478.546 441.496 489.081 452.002 C 497.293 460.338 502.9 470.885 505.216 482.355 C 507.43 493.284 506.228 529.355 506.186 542.722 L 506.217 664.5 C 506.362 691.688 506.034 710.751 498.637 737.463 C 481.237 800.298 442.909 848.528 386.604 880.574 C 337.321 908.895 278.712 916.186 223.992 900.803 C 162.069 883.629 111.32 840.909 80.0204 785.25 C 66.7595 761.323 57.9172 735.204 53.917 708.143 C 51.1568 689.576 51.5018 671.878 51.4001 653.193 L 51.5793 573.948 L 51.591 488.279 C 51.5937 472.237 51.0662 452.097 52.2172 436.372 C 53.2657 422.752 55.6975 409.275 59.4752 396.147 C 75.087 340.763 109.341 293.187 159.871 264.89 z"/>
<path transform="translate(0,0)" fill="rgb(0,0,0)" d="M 434.934 255.435 C 454.586 252.681 491.537 257.036 510.426 262.203 C 568.748 278.158 617.235 316.165 647.494 368.144 C 661.821 392.379 671.464 419.093 675.919 446.892 C 679.776 470.456 679.098 490.107 679.065 513.804 L 679.014 582.768 L 679.069 662.203 C 679.078 677.925 679.371 694.03 678.596 709.707 C 675.063 781.257 632.444 855.975 569.854 892.084 L 569.161 635.576 L 569.204 538.694 C 569.154 506.149 571.986 481.496 559.68 450.735 C 551.448 431.152 538.291 414.03 521.487 401.034 C 496.256 381.261 467.68 372.894 435.706 376.892 C 413.275 379.791 392.242 389.395 375.361 404.447 C 331.319 443.891 333.686 485.73 333.77 538.875 L 333.913 628.548 C 333.933 642.432 334.782 669.543 332.312 682.169 C 330.603 691.232 326.732 699.747 321.026 706.992 C 302.639 730.067 267.125 733.939 244.242 714.753 C 218.435 693.116 222.318 664.868 222.489 634.704 L 222.678 575.046 L 222.623 508.078 C 222.624 489.671 222.282 466.375 225.029 448.548 C 230.725 411.585 250.681 366.393 275.4 338.067 C 318.366 288.833 369.939 260.789 434.934 255.435 z"/>
<path transform="translate(0,0)" fill="rgb(0,0,0)" d="M 752.543 350.326 C 770.887 349.465 812.145 349.295 829.775 350.779 C 831.898 436.957 828.433 524.283 830.251 610.56 C 830.49 621.901 830.026 633.257 832.384 644.441 C 841.18 686.162 878.586 717.99 921.501 718.115 C 945.99 718.373 969.573 708.868 987.037 691.699 C 1017.78 660.934 1016.14 629.567 1016.1 589.447 L 1016.03 533.878 L 1015.98 350.686 C 1027.17 350.036 1083.74 348.45 1091.63 352.047 C 1094.22 356.189 1093.74 422.602 1093.88 433.25 L 1094.4 574.376 C 1094.29 598.556 1095.31 631.46 1091.52 654.603 C 1088.53 673.467 1082.26 691.661 1072.98 708.355 C 1050.16 748.798 1012.27 778.578 967.578 791.205 C 923.101 803.692 875.477 797.866 835.321 775.026 C 797.905 753.688 770.33 718.549 758.5 677.132 C 755.004 664.736 752.927 651.983 752.307 639.119 C 750.526 603.178 752.491 549.651 751.894 514.014 C 751.599 496.416 750.914 353.202 752.543 350.326 z"/>
<path transform="translate(0,0)" fill="rgb(0,0,0)" d="M 1909.73 469.073 C 1932.11 467.09 1968.78 467.742 1991.17 468.635 C 1987.54 481.777 1974.34 513.643 1969.05 527.499 C 1953.14 568.947 1937.44 610.477 1921.95 652.087 L 1821.2 917.144 C 1806.99 918.753 1758.55 917.797 1741.75 917.816 C 1757.8 877.387 1777.74 826.968 1791.55 786.127 C 1787.35 775.847 1782.85 761.142 1779.1 750.161 L 1753.13 673.813 C 1729.81 606.229 1705.09 537.599 1682.52 469.981 L 1683.17 469.146 L 1689.05 468.456 C 1712.28 468.471 1736.07 467.972 1759.21 469.336 C 1765.66 469.716 1772.04 497.188 1774.01 503.716 L 1790.38 559.065 C 1800.46 593.503 1811.27 627.628 1821.05 662.181 C 1824.74 675.217 1828.55 711.691 1833.18 718.664 C 1834.72 717.306 1835.92 708.751 1836.41 706.066 C 1842.82 670.997 1854.67 637.679 1865.65 603.827 L 1909.73 469.073 z"/>
<path transform="translate(0,0)" fill="rgb(0,0,0)" d="M 1188.24 537.004 C 1196.02 484.146 1219.51 463.027 1273.54 460.882 C 1329.6 458.657 1378.36 498.038 1386.13 553.802 C 1390.18 582.906 1387.12 613.552 1388.03 642.928 C 1388.34 692.765 1387.66 742.645 1388.24 792.517 C 1367.64 793.397 1334.97 793.113 1314.21 792.495 L 1314.24 653.261 C 1314.23 627.133 1315.41 598.371 1312.19 573.306 C 1304.51 513.442 1211.17 515.277 1193.01 566.847 C 1191.38 571.49 1188.61 577.029 1188.15 581.893 C 1186.02 604.361 1187.2 628.113 1187.19 650.742 C 1186.9 698.125 1186.94 745.509 1187.32 792.891 C 1162.26 792.926 1137.2 792.783 1112.14 792.462 L 1112.07 469.004 C 1128.56 467.368 1166.35 468.792 1184.26 469.022 C 1183.81 490.693 1183.38 515.108 1184.64 536.579 C 1185.19 551.363 1186.76 551.921 1188.24 537.004 z"/>
<path transform="translate(0,0)" fill="rgb(0,0,0)" d="M 1545.64 374.425 C 1563.11 373.847 1602.44 373.804 1619.47 375.271 C 1618.69 402.053 1617.3 442.391 1620 468.446 C 1637.6 469.155 1658.91 468.568 1676.79 468.548 C 1673.99 485.975 1675.11 509.764 1675.69 527.815 C 1658.49 527.591 1636.09 526.701 1619.3 527.679 C 1617.71 553.551 1619.77 587.988 1619.08 614.795 C 1619.87 643.149 1617.79 672.093 1619.91 700.374 C 1623.02 741.987 1662.31 735.407 1688.95 723.607 C 1695.08 740.504 1699.39 758.269 1705.77 775.243 C 1705.59 775.474 1705.4 775.704 1705.21 775.935 C 1680.37 795.007 1642.97 800.679 1613.13 794.815 C 1597.95 791.888 1582.88 786.278 1571.81 775.022 C 1550.62 753.483 1544.8 721.818 1544.89 692.695 C 1544.95 676.735 1544.8 660.901 1544.81 645.005 L 1544.85 528.043 C 1534.96 526.782 1512.95 527.258 1502.1 527.256 L 1502.22 468.687 C 1515.73 467.405 1530.68 469.626 1544.96 468.408 C 1544.97 456.273 1543.84 379.289 1545.64 374.425 z"/>
<path transform="translate(0,0)" fill="rgb(0,0,0)" d="M 1409.07 468.843 C 1434.1 468.758 1459.13 468.823 1484.15 469.038 C 1481.78 551.465 1484.94 701.633 1483.74 790.564 C 1483.29 791.192 1482.84 791.819 1482.38 792.446 C 1459.15 793.153 1432.69 792.681 1409.23 792.734 L 1409.07 468.843 z"/>
<path transform="translate(0,0)" fill="rgb(0,0,0)" d="M 1442 333.151 C 1467.05 329.337 1490.47 346.465 1494.42 371.486 C 1498.38 396.507 1481.38 420.024 1456.38 424.12 C 1431.18 428.248 1407.44 411.086 1403.45 385.865 C 1399.47 360.645 1416.76 336.996 1442 333.151 z"/>
<path transform="translate(0,0)" fill="rgb(227,227,227)" fill-opacity="0.0117647" d="M 1184.64 536.579 L 1188.24 537.004 C 1186.76 551.921 1185.19 551.363 1184.64 536.579 z"/>
</svg>